<svg width="1440" height="100" viewBox="0 0 1440 100" fill="none" xmlns="http://www.w3.org/2000/svg">
<path d="M0 70.0001L10 63.3001C20 57.0001 40 43.0001 60 31.7001C80 20.0001 100 10.0001 120 11.7001C140 13.0001 160 27.0001 180 35.0001C200 43.0001 220 47.0001 240 51.7001C260 57.0001 280 63.0001 300 63.3001C320 63.0001 340 57.0001 360 51.7001C380 47.0001 400 43.0001 420 48.3001C440 53.0001 460 67.0001 480 70.0001C500 73.0001 520 67.0001 540 53.3001C560 40.0001 580 20.0001 600 16.7001C620 13.0001 640 27.0001 660 36.7001C680 47.0001 700 53.0001 720 58.3001C740 63.0001 760 67.0001 780 56.7001C800 47.0001 820 23.0001 840 25.0001C860 27.0001 880 53.0001 900 55.0001C920 57.0001 940 33.0001 960 31.7001C980 30.0001 1000 50.0001 1020 63.3001C1040 77.0001 1060 83.0001 1080 71.7001C1100 60.0001 1120 30.0001 1140 25.0001C1160 20.0001 1180 40.0001 1200 43.3001C1220 47.0001 1240 33.0001 1260 35.0001C1280 37.0001 1300 53.0001 1320 50.0001C1340 47.0001 1360 23.0001 1380 15.0001C1400 7.00011 1420 13.0001 1430 16.7001L1440 20.0001V100H1430C1420 100 1400 100 1380 100C1360 100 1340 100 1320 100C1300 100 1280 100 1260 100C1240 100 1220 100 1200 100C1180 100 1160 100 1140 100C1120 100 1100 100 1080 100C1060 100 1040 100 1020 100C1000 100 980 100 960 100C940 100 920 100 900 100C880 100 860 100 840 100C820 100 800 100 780 100C760 100 740 100 720 100C700 100 680 100 660 100C640 100 620 100 600 100C580 100 560 100 540 100C520 100 500 100 480 100C460 100 440 100 420 100C400 100 380 100 360 100C340 100 320 100 300 100C280 100 260 100 240 100C220 100 200 100 180 100C160 100 140 100 120 100C100 100 80 100 60 100C40 100 20 100 10 100H0V70.0001Z" fill="url(#paint0_linear_14_125)"/>
<defs>
<linearGradient id="paint0_linear_14_125" x1="0" y1="100" x2="0" y2="11.0427" gradientUnits="userSpaceOnUse">
<stop stop-color="#FFD84E"/>
<stop offset="1" stop-color="#FFB30B"/>
</linearGradient>
</defs>
</svg>
